{
  "accessors": [
    {
      "bufferView": 2,
      "componentType": 5126,
      "count": 733,
      "max": [
        1.2350000143051147,
        0.6325836777687073,
        0.17158901691436768
      ],
      "min": [
        -1.2350000143051147,
        -0.6325836777687073,
        -0.17158901691436768
      ],
      "type": "VEC3"
    },
    {
      "bufferView": 2,
      "byteOffset": 8796,
      "componentType": 5126,
      "count": 733,
      "max": [
        0.9284762144088745,
        0.9238803386688232,
        0.9961968064308167
      ],
      "min": [
        -0.9284762144088745,
        -0.9573158025741577,
        -1.0
      ],
      "type": "VEC3"
    },
    {
      "bufferView": 3,
      "componentType": 5126,
      "count": 733,
      "max": [
        1.0,
        1.0,
        0.9564434289932251,
        1.0
      ],
      "min": [
        -1.0,
        -0.9999995231628418,
        -0.9709528088569641,
        1.0
      ],
      "type": "VEC4"
    },
    {
      "bufferView": 1,
      "componentType": 5126,
      "count": 733,
      "max": [
        0.9934338927268982,
        0.9909862875938416
      ],
      "min": [
        0.006566077470779419,
        0.00325842946767807
      ],
      "type": "VEC2"
    },
    {
      "bufferView": 0,
      "componentType": 5125,
      "count": 3480,
      "type": "SCALAR"
    },
    {
      "bufferView": 2,
      "byteOffset": 17592,
      "componentType": 5126,
      "count": 2242,
      "max": [
        1.2416820526123047,
        0.6392533779144287,
        0.17669984698295593
      ],
      "min": [
        -1.2416824102401733,
        -0.6393240094184875,
        -0.1788174957036972
      ],
      "type": "VEC3"
    },
    {
      "bufferView": 2,
      "byteOffset": 44496,
      "componentType": 5126,
      "count": 2242,
      "max": [
        1.0,
        0.9999999403953552,
        1.0
      ],
      "min": [
        -1.0,
        -1.0,
        -0.9973770380020142
      ],
      "type": "VEC3"
    },
    {
      "bufferView": 1,
      "byteOffset": 5864,
      "componentType": 5126,
      "count": 2242,
      "max": [
        0.9934338927268982,
        0.9909862875938416
      ],
      "min": [
        0.006566077470779419,
        0.00325842946767807
      ],
      "type": "VEC2"
    },
    {
      "bufferView": 0,
      "byteOffset": 13920,
      "componentType": 5125,
      "count": 3480,
      "type": "SCALAR"
    }
  ],
  "asset": {
    "extras": {
      "author": "Matys (https://sketchfab.com/Matysino)",
      "license": "CC-BY-4.0 (http://creativecommons.org/licenses/by/4.0/)",
      "source": "https://sketchfab.com/3d-models/cartoon-mini-keyboard-79a8ea6311bf48faa10e381263a9beb5",
      "title": "Cartoon Mini Keyboard"
    },
    "generator": "Sketchfab-12.65.0",
    "version": "2.0"
  },
  "bufferViews": [
    {
      "buffer": 0,
      "byteLength": 27840,
      "name": "floatBufferViews",
      "target": 34963
    },
    {
      "buffer": 0,
      "byteLength": 23800,
      "byteOffset": 27840,
      "byteStride": 8,
      "name": "floatBufferViews",
      "target": 34962
    },
    {
      "buffer": 0,
      "byteLength": 71400,
      "byteOffset": 51640,
      "byteStride": 12,
      "name": "floatBufferViews",
      "target": 34962
    },
    {
      "buffer": 0,
      "byteLength": 11728,
      "byteOffset": 123040,
      "byteStride": 16,
      "name": "floatBufferViews",
      "target": 34962
    }
  ],
  "buffers": [
    {
      "byteLength": 134768,
      "uri": "scene.bin"
    }
  ],
  "images": [
    {
      "uri": "textures/keyboard_baseColor.png"
    },
    {
      "uri": "textures/keyboard_metallicRoughness.png"
    },
    {
      "uri": "textures/keyboard_emissive.png"
    },
    {
      "uri": "textures/keyboard_normal.png"
    }
  ],
  "materials": [
    {
      "emissiveFactor": [
        1.0,
        1.0,
        1.0
      ],
      "emissiveTexture": {
        "index": 2
      },
      "name": "keyboard",
      "normalTexture": {
        "index": 3
      },
      "occlusionTexture": {
        "index": 1
      },
      "pbrMetallicRoughness": {
        "baseColorTexture": {
          "index": 0
        },
        "metallicFactor": 0.0,
        "metallicRoughnessTexture": {
          "index": 1
        },
        "roughnessFactor": 0.8187881098
      }
    },
    {
      "name": "outline",
      "pbrMetallicRoughness": {
        "baseColorFactor": [
          0.0,
          0.0,
          0.0,
          1.0
        ],
        "metallicFactor": 0.0
      }
    }
  ],
  "meshes": [
    {
      "name": "LP_keyboard_0",
      "primitives": [
        {
          "attributes": {
            "NORMAL": 1,
            "POSITION": 0,
            "TANGENT": 2,
            "TEXCOORD_0": 3
          },
          "indices": 4,
          "material": 0,
          "mode": 4
        }
      ]
    },
    {
      "name": "LP_outline_0",
      "primitives": [
        {
          "attributes": {
            "NORMAL": 6,
            "POSITION": 5,
            "TEXCOORD_0": 7
          },
          "indices": 8,
          "material": 1,
          "mode": 4
        }
      ]
    }
  ],
  "nodes": [
    {
      "children": [
        1
      ],
      "matrix": [
        1.0,
        0.0,
        0.0,
        0.0,
        0.0,
        2.220446049250313e-16,
        -1.0,
        0.0,
        0.0,
        1.0,
        2.220446049250313e-16,
        0.0,
        0.0,
        0.0,
        0.0,
        1.0
      ],
      "name": "Sketchfab_model"
    },
    {
      "children": [
        2
      ],
      "matrix": [
        1.0,
        0.0,
        0.0,
        0.0,
        0.0,
        0.0,
        1.0,
        0.0,
        0.0,
        -1.0,
        0.0,
        0.0,
        0.0,
        0.0,
        0.0,
        1.0
      ],
      "name": "2417464e1e8d40bcafb5afb1124f02c9.fbx"
    },
    {
      "children": [
        3
      ],
      "name": "RootNode"
    },
    {
      "children": [
        4,
        5
      ],
      "matrix": [
        100.0,
        0.0,
        0.0,
        0.0,
        0.0,
        -1.629206793918314e-05,
        -99.99999999999868,
        0.0,
        0.0,
        99.99999999999868,
        -1.629206793918314e-05,
        0.0,
        0.0,
        0.0,
        0.0,
        1.0
      ],
      "name": "LP"
    },
    {
      "mesh": 0,
      "name": "LP_keyboard_0"
    },
    {
      "mesh": 1,
      "name": "LP_outline_0"
    }
  ],
  "samplers": [
    {
      "magFilter": 9729,
      "minFilter": 9987,
      "wrapS": 10497,
      "wrapT": 10497
    }
  ],
  "scene": 0,
  "scenes": [
    {
      "name": "Sketchfab_Scene",
      "nodes": [
        0
      ]
    }
  ],
  "textures": [
    {
      "sampler": 0,
      "source": 0
    },
    {
      "sampler": 0,
      "source": 1
    },
    {
      "sampler": 0,
      "source": 2
    },
    {
      "sampler": 0,
      "source": 3
    }
  ]
}
