{
  "accessors": [
    {
      "bufferView": 2,
      "componentType": 5126,
      "count": 1158,
      "max": [
        239.6680908203125,
        50.924964904785156,
        2.842170943040401e-14
      ],
      "min": [
        12.34461784362793,
        24.041528701782227,
        -207.05503845214844
      ],
      "type": "VEC3"
    },
    {
      "bufferView": 2,
      "byteOffset": 13896,
      "componentType": 5126,
      "count": 1158,
      "max": [
        0.9999967217445374,
        0.9930321574211121,
        0.9985092282295227
      ],
      "min": [
        -0.9996816515922546,
        -0.9829646944999695,
        -0.9999926090240479
      ],
      "type": "VEC3"
    },
    {
      "bufferView": 1,
      "componentType": 5126,
      "count": 1158,
      "max": [
        385.7350158691406,
        231.6792755126953
      ],
      "min": [
        -390.78369140625,
        -497.3910217285156
      ],
      "type": "VEC2"
    },
    {
      "bufferView": 1,
      "byteOffset": 9264,
      "componentType": 5126,
      "count": 1158,
      "max": [
        385.7350158691406,
        231.6792755126953
      ],
      "min": [
        -390.78369140625,
        -497.3910217285156
      ],
      "type": "VEC2"
    },
    {
      "bufferView": 1,
      "byteOffset": 18528,
      "componentType": 5126,
      "count": 1158,
      "max": [
        385.7350158691406,
        231.6792755126953
      ],
      "min": [
        -390.78369140625,
        -497.3910217285156
      ],
      "type": "VEC2"
    },
    {
      "bufferView": 1,
      "byteOffset": 27792,
      "componentType": 5126,
      "count": 1158,
      "max": [
        385.7350158691406,
        231.6792755126953
      ],
      "min": [
        -390.78369140625,
        -497.3910217285156
      ],
      "type": "VEC2"
    },
    {
      "bufferView": 1,
      "byteOffset": 37056,
      "componentType": 5126,
      "count": 1158,
      "max": [
        385.7350158691406,
        231.6792755126953
      ],
      "min": [
        -390.78369140625,
        -497.3910217285156
      ],
      "type": "VEC2"
    },
    {
      "bufferView": 1,
      "byteOffset": 46320,
      "componentType": 5126,
      "count": 1158,
      "max": [
        385.7350158691406,
        231.6792755126953
      ],
      "min": [
        -390.78369140625,
        -497.3910217285156
      ],
      "type": "VEC2"
    },
    {
      "bufferView": 1,
      "byteOffset": 55584,
      "componentType": 5126,
      "count": 1158,
      "max": [
        385.7350158691406,
        231.6792755126953
      ],
      "min": [
        -390.78369140625,
        -497.3910217285156
      ],
      "type": "VEC2"
    },
    {
      "bufferView": 1,
      "byteOffset": 64848,
      "componentType": 5126,
      "count": 1158,
      "max": [
        385.7350158691406,
        231.6792755126953
      ],
      "min": [
        -390.78369140625,
        -497.3910217285156
      ],
      "type": "VEC2"
    },
    {
      "bufferView": 1,
      "byteOffset": 74112,
      "componentType": 5126,
      "count": 1158,
      "max": [
        385.7350158691406,
        231.6792755126953
      ],
      "min": [
        -390.78369140625,
        -497.3910217285156
      ],
      "type": "VEC2"
    },
    {
      "bufferView": 1,
      "byteOffset": 83376,
      "componentType": 5126,
      "count": 1158,
      "max": [
        385.7350158691406,
        231.6792755126953
      ],
      "min": [
        -390.78369140625,
        -497.3910217285156
      ],
      "type": "VEC2"
    },
    {
      "bufferView": 0,
      "componentType": 5125,
      "count": 3210,
      "type": "SCALAR"
    },
    {
      "bufferView": 2,
      "byteOffset": 27792,
      "componentType": 5126,
      "count": 1144,
      "max": [
        236.13442993164063,
        93.99825286865234,
        -2.045909881591797
      ],
      "min": [
        22.41779899597168,
        73.9608383178711,
        -201.4697265625
      ],
      "type": "VEC3"
    },
    {
      "bufferView": 2,
      "byteOffset": 41520,
      "componentType": 5126,
      "count": 1144,
      "max": [
        0.9983085989952087,
        0.9965334534645081,
        0.9997166395187378
      ],
      "min": [
        -0.9986932873725891,
        -1.0,
        -0.9946723580360413
      ],
      "type": "VEC3"
    },
    {
      "bufferView": 1,
      "byteOffset": 92640,
      "componentType": 5126,
      "count": 1144,
      "max": [
        362.4407958984375,
        435.7374572753906
      ],
      "min": [
        -335.378173828125,
        -528.0357666015625
      ],
      "type": "VEC2"
    },
    {
      "bufferView": 1,
      "byteOffset": 101792,
      "componentType": 5126,
      "count": 1144,
      "max": [
        362.4407958984375,
        435.7374572753906
      ],
      "min": [
        -335.378173828125,
        -528.0357666015625
      ],
      "type": "VEC2"
    },
    {
      "bufferView": 1,
      "byteOffset": 110944,
      "componentType": 5126,
      "count": 1144,
      "max": [
        362.4407958984375,
        435.7374572753906
      ],
      "min": [
        -335.378173828125,
        -528.0357666015625
      ],
      "type": "VEC2"
    },
    {
      "bufferView": 1,
      "byteOffset": 120096,
      "componentType": 5126,
      "count": 1144,
      "max": [
        362.4407958984375,
        435.7374572753906
      ],
      "min": [
        -335.378173828125,
        -528.0357666015625
      ],
      "type": "VEC2"
    },
    {
      "bufferView": 1,
      "byteOffset": 129248,
      "componentType": 5126,
      "count": 1144,
      "max": [
        362.4407958984375,
        435.7374572753906
      ],
      "min": [
        -335.378173828125,
        -528.0357666015625
      ],
      "type": "VEC2"
    },
    {
      "bufferView": 1,
      "byteOffset": 138400,
      "componentType": 5126,
      "count": 1144,
      "max": [
        362.4407958984375,
        435.7374572753906
      ],
      "min": [
        -335.378173828125,
        -528.0357666015625
      ],
      "type": "VEC2"
    },
    {
      "bufferView": 1,
      "byteOffset": 147552,
      "componentType": 5126,
      "count": 1144,
      "max": [
        362.4407958984375,
        435.7374572753906
      ],
      "min": [
        -335.378173828125,
        -528.0357666015625
      ],
      "type": "VEC2"
    },
    {
      "bufferView": 1,
      "byteOffset": 156704,
      "componentType": 5126,
      "count": 1144,
      "max": [
        362.4407958984375,
        435.7374572753906
      ],
      "min": [
        -335.378173828125,
        -528.0357666015625
      ],
      "type": "VEC2"
    },
    {
      "bufferView": 1,
      "byteOffset": 165856,
      "componentType": 5126,
      "count": 1144,
      "max": [
        362.4407958984375,
        435.7374572753906
      ],
      "min": [
        -335.378173828125,
        -528.0357666015625
      ],
      "type": "VEC2"
    },
    {
      "bufferView": 1,
      "byteOffset": 175008,
      "componentType": 5126,
      "count": 1144,
      "max": [
        362.4407958984375,
        435.7374572753906
      ],
      "min": [
        -335.378173828125,
        -528.0357666015625
      ],
      "type": "VEC2"
    },
    {
      "bufferView": 0,
      "byteOffset": 12840,
      "componentType": 5125,
      "count": 3000,
      "type": "SCALAR"
    },
    {
      "bufferView": 2,
      "byteOffset": 55248,
      "componentType": 5126,
      "count": 1238,
      "max": [
        210.16624450683594,
        24.000102996826172,
        -14.738177299499512
      ],
      "min": [
        10.166213035583496,
        1.491862189340054e-14,
        -224.08169555664063
      ],
      "type": "VEC3"
    },
    {
      "bufferView": 2,
      "byteOffset": 70104,
      "componentType": 5126,
      "count": 1238,
      "max": [
        1.0,
        0.9819496870040894,
        1.0
      ],
      "min": [
        -1.0,
        -0.9907758831977844,
        -1.0
      ],
      "type": "VEC3"
    },
    {
      "bufferView": 1,
      "byteOffset": 184160,
      "componentType": 5126,
      "count": 1238,
      "max": [
        0.8974266052246094,
        107.76641082763672
      ],
      "min": [
        -483.8433837890625,
        0.08502362668514252
      ],
      "type": "VEC2"
    },
    {
      "bufferView": 1,
      "byteOffset": 194064,
      "componentType": 5126,
      "count": 1238,
      "max": [
        0.8974266052246094,
        107.76641082763672
      ],
      "min": [
        -483.8433837890625,
        0.08502362668514252
      ],
      "type": "VEC2"
    },
    {
      "bufferView": 1,
      "byteOffset": 203968,
      "componentType": 5126,
      "count": 1238,
      "max": [
        0.8974266052246094,
        107.76641082763672
      ],
      "min": [
        -483.8433837890625,
        0.08502362668514252
      ],
      "type": "VEC2"
    },
    {
      "bufferView": 1,
      "byteOffset": 213872,
      "componentType": 5126,
      "count": 1238,
      "max": [
        0.8974266052246094,
        107.76641082763672
      ],
      "min": [
        -483.8433837890625,
        0.08502362668514252
      ],
      "type": "VEC2"
    },
    {
      "bufferView": 1,
      "byteOffset": 223776,
      "componentType": 5126,
      "count": 1238,
      "max": [
        0.8974266052246094,
        107.76641082763672
      ],
      "min": [
        -483.8433837890625,
        0.08502362668514252
      ],
      "type": "VEC2"
    },
    {
      "bufferView": 1,
      "byteOffset": 233680,
      "componentType": 5126,
      "count": 1238,
      "max": [
        0.8974266052246094,
        107.76641082763672
      ],
      "min": [
        -483.8433837890625,
        0.08502362668514252
      ],
      "type": "VEC2"
    },
    {
      "bufferView": 1,
      "byteOffset": 243584,
      "componentType": 5126,
      "count": 1238,
      "max": [
        0.8974266052246094,
        107.76641082763672
      ],
      "min": [
        -483.8433837890625,
        0.08502362668514252
      ],
      "type": "VEC2"
    },
    {
      "bufferView": 1,
      "byteOffset": 253488,
      "componentType": 5126,
      "count": 1238,
      "max": [
        0.8974266052246094,
        107.76641082763672
      ],
      "min": [
        -483.8433837890625,
        0.08502362668514252
      ],
      "type": "VEC2"
    },
    {
      "bufferView": 1,
      "byteOffset": 263392,
      "componentType": 5126,
      "count": 1238,
      "max": [
        0.8974266052246094,
        107.76641082763672
      ],
      "min": [
        -483.8433837890625,
        0.08502362668514252
      ],
      "type": "VEC2"
    },
    {
      "bufferView": 1,
      "byteOffset": 273296,
      "componentType": 5126,
      "count": 1238,
      "max": [
        0.8974266052246094,
        107.76641082763672
      ],
      "min": [
        -483.8433837890625,
        0.08502362668514252
      ],
      "type": "VEC2"
    },
    {
      "bufferView": 0,
      "byteOffset": 24840,
      "componentType": 5125,
      "count": 3375,
      "type": "SCALAR"
    },
    {
      "bufferView": 2,
      "byteOffset": 84960,
      "componentType": 5126,
      "count": 1399,
      "max": [
        214.48977661132813,
        73.89925384521484,
        -11.34726333618164
      ],
      "min": [
        -1.4210854715202004e-14,
        51.006595611572266,
        -197.38693237304688
      ],
      "type": "VEC3"
    },
    {
      "bufferView": 2,
      "byteOffset": 101748,
      "componentType": 5126,
      "count": 1399,
      "max": [
        0.9998693466186523,
        1.0,
        0.9994752407073975
      ],
      "min": [
        -0.9999673366546631,
        -1.0,
        -0.9997564554214478
      ],
      "type": "VEC3"
    },
    {
      "bufferView": 1,
      "byteOffset": 283200,
      "componentType": 5126,
      "count": 1399,
      "max": [
        614.3522338867188,
        344.6697998046875
      ],
      "min": [
        -0.7402737736701965,
        -331.9552001953125
      ],
      "type": "VEC2"
    },
    {
      "bufferView": 1,
      "byteOffset": 294392,
      "componentType": 5126,
      "count": 1399,
      "max": [
        614.3522338867188,
        344.6697998046875
      ],
      "min": [
        -0.7402737736701965,
        -331.9552001953125
      ],
      "type": "VEC2"
    },
    {
      "bufferView": 1,
      "byteOffset": 305584,
      "componentType": 5126,
      "count": 1399,
      "max": [
        614.3522338867188,
        344.6697998046875
      ],
      "min": [
        -0.7402737736701965,
        -331.9552001953125
      ],
      "type": "VEC2"
    },
    {
      "bufferView": 1,
      "byteOffset": 316776,
      "componentType": 5126,
      "count": 1399,
      "max": [
        614.3522338867188,
        344.6697998046875
      ],
      "min": [
        -0.7402737736701965,
        -331.9552001953125
      ],
      "type": "VEC2"
    },
    {
      "bufferView": 1,
      "byteOffset": 327968,
      "componentType": 5126,
      "count": 1399,
      "max": [
        614.3522338867188,
        344.6697998046875
      ],
      "min": [
        -0.7402737736701965,
        -331.9552001953125
      ],
      "type": "VEC2"
    },
    {
      "bufferView": 1,
      "byteOffset": 339160,
      "componentType": 5126,
      "count": 1399,
      "max": [
        614.3522338867188,
        344.6697998046875
      ],
      "min": [
        -0.7402737736701965,
        -331.9552001953125
      ],
      "type": "VEC2"
    },
    {
      "bufferView": 1,
      "byteOffset": 350352,
      "componentType": 5126,
      "count": 1399,
      "max": [
        614.3522338867188,
        344.6697998046875
      ],
      "min": [
        -0.7402737736701965,
        -331.9552001953125
      ],
      "type": "VEC2"
    },
    {
      "bufferView": 1,
      "byteOffset": 361544,
      "componentType": 5126,
      "count": 1399,
      "max": [
        614.3522338867188,
        344.6697998046875
      ],
      "min": [
        -0.7402737736701965,
        -331.9552001953125
      ],
      "type": "VEC2"
    },
    {
      "bufferView": 1,
      "byteOffset": 372736,
      "componentType": 5126,
      "count": 1399,
      "max": [
        614.3522338867188,
        344.6697998046875
      ],
      "min": [
        -0.7402737736701965,
        -331.9552001953125
      ],
      "type": "VEC2"
    },
    {
      "bufferView": 1,
      "byteOffset": 383928,
      "componentType": 5126,
      "count": 1399,
      "max": [
        614.3522338867188,
        344.6697998046875
      ],
      "min": [
        -0.7402737736701965,
        -331.9552001953125
      ],
      "type": "VEC2"
    },
    {
      "bufferView": 0,
      "byteOffset": 38340,
      "componentType": 5125,
      "count": 3210,
      "type": "SCALAR"
    }
  ],
  "asset": {
    "extras": {
      "author": "Melisa🌸 (https://sketchfab.com/bubirmelisa)",
      "license": "CC-BY-4.0 (http://creativecommons.org/licenses/by/4.0/)",
      "source": "https://sketchfab.com/3d-models/book-stack-198d3bdc5384426b9695394a82bc3825",
      "title": "Book Stack"
    },
    "generator": "Sketchfab-15.34.0",
    "version": "2.0"
  },
  "bufferViews": [
    {
      "buffer": 0,
      "byteLength": 51180,
      "name": "floatBufferViews",
      "target": 34963
    },
    {
      "buffer": 0,
      "byteLength": 395120,
      "byteOffset": 51180,
      "byteStride": 8,
      "name": "floatBufferViews",
      "target": 34962
    },
    {
      "buffer": 0,
      "byteLength": 118536,
      "byteOffset": 446300,
      "byteStride": 12,
      "name": "floatBufferViews",
      "target": 34962
    }
  ],
  "buffers": [
    {
      "byteLength": 564836,
      "uri": "scene.bin"
    }
  ],
  "images": [
    {
      "uri": "textures/Material_41_baseColor.jpeg"
    },
    {
      "uri": "textures/Material_43_baseColor.jpeg"
    },
    {
      "uri": "textures/Material_40_baseColor.jpeg"
    },
    {
      "uri": "textures/Material_42_baseColor.jpeg"
    }
  ],
  "materials": [
    {
      "doubleSided": true,
      "name": "Material_41",
      "pbrMetallicRoughness": {
        "baseColorTexture": {
          "index": 0
        },
        "metallicFactor": 0.0,
        "roughnessFactor": 0.22742621691799447
      }
    },
    {
      "doubleSided": true,
      "name": "Material_43",
      "pbrMetallicRoughness": {
        "baseColorTexture": {
          "index": 1
        },
        "metallicFactor": 0.0,
        "roughnessFactor": 0.4285696870695226
      }
    },
    {
      "doubleSided": true,
      "name": "Material_40",
      "pbrMetallicRoughness": {
        "baseColorTexture": {
          "index": 2
        },
        "metallicFactor": 0.0,
        "roughnessFactor": 0.22742621691799447
      }
    },
    {
      "doubleSided": true,
      "name": "Material_42",
      "pbrMetallicRoughness": {
        "baseColorTexture": {
          "index": 3
        },
        "metallicFactor": 0.0,
        "roughnessFactor": 0.3371408370006461
      }
    }
  ],
  "meshes": [
    {
      "name": "Mesh1_Material_41_0",
      "primitives": [
        {
          "attributes": {
            "NORMAL": 1,
            "POSITION": 0,
            "TEXCOORD_0": 2,
            "TEXCOORD_1": 3,
            "TEXCOORD_2": 4,
            "TEXCOORD_3": 5,
            "TEXCOORD_4": 6,
            "TEXCOORD_5": 7,
            "TEXCOORD_6": 8,
            "TEXCOORD_7": 9,
            "TEXCOORD_8": 10,
            "TEXCOORD_9": 11
          },
          "indices": 12,
          "material": 0,
          "mode": 4
        }
      ]
    },
    {
      "name": "Mesh2_Material_43_0",
      "primitives": [
        {
          "attributes": {
            "NORMAL": 14,
            "POSITION": 13,
            "TEXCOORD_0": 15,
            "TEXCOORD_1": 16,
            "TEXCOORD_2": 17,
            "TEXCOORD_3": 18,
            "TEXCOORD_4": 19,
            "TEXCOORD_5": 20,
            "TEXCOORD_6": 21,
            "TEXCOORD_7": 22,
            "TEXCOORD_8": 23,
            "TEXCOORD_9": 24
          },
          "indices": 25,
          "material": 1,
          "mode": 4
        }
      ]
    },
    {
      "name": "Mesh3_Material_40_0",
      "primitives": [
        {
          "attributes": {
            "NORMAL": 27,
            "POSITION": 26,
            "TEXCOORD_0": 28,
            "TEXCOORD_1": 29,
            "TEXCOORD_2": 30,
            "TEXCOORD_3": 31,
            "TEXCOORD_4": 32,
            "TEXCOORD_5": 33,
            "TEXCOORD_6": 34,
            "TEXCOORD_7": 35,
            "TEXCOORD_8": 36,
            "TEXCOORD_9": 37
          },
          "indices": 38,
          "material": 2,
          "mode": 4
        }
      ]
    },
    {
      "name": "Mesh4_Material_42_0",
      "primitives": [
        {
          "attributes": {
            "NORMAL": 40,
            "POSITION": 39,
            "TEXCOORD_0": 41,
            "TEXCOORD_1": 42,
            "TEXCOORD_2": 43,
            "TEXCOORD_3": 44,
            "TEXCOORD_4": 45,
            "TEXCOORD_5": 46,
            "TEXCOORD_6": 47,
            "TEXCOORD_7": 48,
            "TEXCOORD_8": 49,
            "TEXCOORD_9": 50
          },
          "indices": 51,
          "material": 3,
          "mode": 4
        }
      ]
    }
  ],
  "nodes": [
    {
      "children": [
        1
      ],
      "matrix": [
        1.0,
        0.0,
        0.0,
        0.0,
        0.0,
        2.220446049250313e-16,
        -1.0,
        0.0,
        0.0,
        1.0,
        2.220446049250313e-16,
        0.0,
        0.0,
        0.0,
        0.0,
        1.0
      ],
      "name": "Sketchfab_model"
    },
    {
      "children": [
        2
      ],
      "matrix": [
        0.009999999776482582,
        0.0,
        0.0,
        0.0,
        0.0,
        0.0,
        0.009999999776482582,
        0.0,
        0.0,
        -0.009999999776482582,
        0.0,
        0.0,
        0.0,
        0.0,
        0.0,
        1.0
      ],
      "name": "4f3c781f75d04d90bfe408638695ef45.fbx"
    },
    {
      "children": [
        3
      ],
      "name": "RootNode"
    },
    {
      "children": [
        4,
        7,
        10,
        13
      ],
      "name": "Model"
    },
    {
      "children": [
        5
      ],
      "name": "G_3DGeom_41"
    },
    {
      "children": [
        6
      ],
      "name": "Mesh1"
    },
    {
      "mesh": 0,
      "name": "Mesh1_Material_41_0"
    },
    {
      "children": [
        8
      ],
      "name": "G_3DGeom_43"
    },
    {
      "children": [
        9
      ],
      "name": "Mesh2"
    },
    {
      "mesh": 1,
      "name": "Mesh2_Material_43_0"
    },
    {
      "children": [
        11
      ],
      "name": "G_3DGeom_40"
    },
    {
      "children": [
        12
      ],
      "name": "Mesh3"
    },
    {
      "mesh": 2,
      "name": "Mesh3_Material_40_0"
    },
    {
      "children": [
        14
      ],
      "name": "G_3DGeom_42"
    },
    {
      "children": [
        15
      ],
      "name": "Mesh4"
    },
    {
      "mesh": 3,
      "name": "Mesh4_Material_42_0"
    }
  ],
  "samplers": [
    {
      "magFilter": 9729,
      "minFilter": 9987,
      "wrapS": 10497,
      "wrapT": 10497
    }
  ],
  "scene": 0,
  "scenes": [
    {
      "name": "Sketchfab_Scene",
      "nodes": [
        0
      ]
    }
  ],
  "textures": [
    {
      "sampler": 0,
      "source": 0
    },
    {
      "sampler": 0,
      "source": 1
    },
    {
      "sampler": 0,
      "source": 2
    },
    {
      "sampler": 0,
      "source": 3
    }
  ]
}
